<svg width="605" height="359" xmlns="http://www.w3.org/2000/svg" xmlns:xlink="http://www.w3.org/1999/xlink" overflow="hidden"><defs><clipPath id="clip0"><rect x="0" y="0" width="605" height="359"/></clipPath><clipPath id="clip1"><rect x="4" y="0" width="412" height="202"/></clipPath><clipPath id="clip2"><rect x="415" y="23" width="186" height="203"/></clipPath><clipPath id="clip3"><rect x="4" y="49" width="412" height="202"/></clipPath><clipPath id="clip4"><rect x="4" y="92" width="412" height="202"/></clipPath><clipPath id="clip5"><rect x="415" y="114" width="186" height="203"/></clipPath><clipPath id="clip6"><rect x="4" y="134" width="412" height="202"/></clipPath><clipPath id="clip7"><rect x="4" y="175" width="412" height="203"/></clipPath><clipPath id="clip8"><rect x="415" y="201" width="186" height="202"/></clipPath><clipPath id="clip9"><rect x="4" y="175" width="412" height="292"/></clipPath><clipPath id="clip10"><rect x="4" y="175" width="412" height="292"/></clipPath></defs><g clip-path="url(#clip0)"><rect x="0" y="0" width="605" height="358.802" fill="#FFFFFF"/><path d="M4.27858 1.86383 600.721 1.86383 600.721 37.0638 4.27858 37.0638Z" fill="#4472C4" fill-rule="evenodd"/><path d="M4.27858 37.0638 415.019 37.0638 415.019 75.4638 4.27858 75.4638Z" fill="#CFD5EA" fill-rule="evenodd"/><path d="M415.019 37.0638 600.721 37.0638 600.721 75.4638 415.019 75.4638Z" fill="#CFD5EA" fill-rule="evenodd"/><path d="M4.27858 75.4638 415.019 75.4638 415.019 126.267 4.27858 126.267Z" fill="#E9EBF5" fill-rule="evenodd"/><path d="M415.019 75.4638 600.721 75.4638 600.721 173.888 415.019 173.888Z" fill="#E9EBF5" fill-rule="evenodd"/><path d="M4.27858 126.267 415.019 126.267 415.019 173.888 4.27858 173.888Z" fill="#CFD5EA" fill-rule="evenodd"/><path d="M4.27858 173.888 415.019 173.888 415.019 212.288 4.27858 212.288Z" fill="#E9EBF5" fill-rule="evenodd"/><path d="M415.019 173.888 600.721 173.888 600.721 257.589 415.019 257.589Z" fill="#E9EBF5" fill-rule="evenodd"/><path d="M4.27858 212.288 415.019 212.288 415.019 257.589 4.27858 257.589Z" fill="#CFD5EA" fill-rule="evenodd"/><path d="M4.27858 257.589 415.019 257.589 415.019 295.989 4.27858 295.989Z" fill="#E9EBF5" fill-rule="evenodd"/><path d="M415.019 257.589 600.721 257.589 600.721 347.189 415.019 347.189Z" fill="#E9EBF5" fill-rule="evenodd"/><path d="M4.27858 295.989 415.019 295.989 415.019 347.189 4.27858 347.189Z" fill="#CFD5EA" fill-rule="evenodd"/><path d="M415.019 35.0638 415.019 347.856" stroke="#FFFFFF" stroke-width="1.33407" stroke-linejoin="round" stroke-miterlimit="10" fill="none" fill-rule="evenodd"/><path d="M3.61154 37.0638 601.388 37.0638" stroke="#FFFFFF" stroke-width="4.0022" stroke-linejoin="round" stroke-miterlimit="10" fill="none" fill-rule="evenodd"/><path d="M3.61154 75.4638 601.388 75.4638" stroke="#FFFFFF" stroke-width="1.33407" stroke-linejoin="round" stroke-miterlimit="10" fill="none" fill-rule="evenodd"/><path d="M3.61154 126.267 415.686 126.267" stroke="#FFFFFF" stroke-width="1.33407" stroke-linejoin="round" stroke-miterlimit="10" fill="none" fill-rule="evenodd"/><path d="M3.61154 173.888 601.388 173.888" stroke="#FFFFFF" stroke-width="1.33407" stroke-linejoin="round" stroke-miterlimit="10" fill="none" fill-rule="evenodd"/><path d="M3.61154 212.288 415.686 212.288" stroke="#FFFFFF" stroke-width="1.33407" stroke-linejoin="round" stroke-miterlimit="10" fill="none" fill-rule="evenodd"/><path d="M3.61154 257.589 601.388 257.589" stroke="#FFFFFF" stroke-width="1.33407" stroke-linejoin="round" stroke-miterlimit="10" fill="none" fill-rule="evenodd"/><path d="M3.61154 295.989 415.686 295.989" stroke="#FFFFFF" stroke-width="1.33407" stroke-linejoin="round" stroke-miterlimit="10" fill="none" fill-rule="evenodd"/><path d="M4.27858 1.19717 4.27858 347.856" stroke="#FFFFFF" stroke-width="1.33407" stroke-linejoin="round" stroke-miterlimit="10" fill="none" fill-rule="evenodd"/><path d="M600.721 1.19717 600.721 347.856" stroke="#FFFFFF" stroke-width="1.33407" stroke-linejoin="round" stroke-miterlimit="10" fill="none" fill-rule="evenodd"/><path d="M3.61154 1.86383 601.388 1.86383" stroke="#FFFFFF" stroke-width="1.33407" stroke-linejoin="round" stroke-miterlimit="10" fill="none" fill-rule="evenodd"/><path d="M3.61154 347.189 601.388 347.189" stroke="#FFFFFF" stroke-width="1.33407" stroke-linejoin="round" stroke-miterlimit="10" fill="none" fill-rule="evenodd"/><text fill="#FFFFFF" font-family="Calibri,Calibri_MSFontService,sans-serif" font-weight="700" font-size="21" transform="matrix(1 0 0 0.999449 231.751 27)">c<tspan x="9.00496" y="0">lass </tspan><tspan x="46.5256" y="0">SpaceCraft</tspan><tspan fill="#000000" font-size="24" x="-64.7056" y="37.0204">Features</tspan><tspan fill="#000000" font-size="24" x="228.093" y="37.0204">Functions</tspan></text><g clip-path="url(#clip1)"><text fill="#0070C0" font-family="Calibri,Calibri_MSFontService,sans-serif" font-weight="400" font-size="24" transform="matrix(1 0 0 0.999449 13.8839 108)">color</text></g><g clip-path="url(#clip2)"><text fill="#548235" font-family="Calibri,Calibri_MSFontService,sans-serif" font-weight="400" font-size="24" transform="matrix(1 0 0 0.999449 424.624 132)">move()</text></g><g clip-path="url(#clip3)"><text fill="#0070C0" font-family="Calibri,Calibri_MSFontService,sans-serif" font-weight="400" font-size="24" transform="matrix(1 0 0 0.999449 13.8839 158)">position</text></g><g clip-path="url(#clip4)"><text fill="#0070C0" font-family="Calibri,Calibri_MSFontService,sans-serif" font-weight="400" font-size="24" transform="matrix(1 0 0 0.999449 13.8839 201)">health</text></g><g clip-path="url(#clip5)"><text fill="#548235" font-family="Calibri,Calibri_MSFontService,sans-serif" font-weight="400" font-size="24" transform="matrix(1 0 0 0.999449 424.624 223)">shoot()</text></g><g clip-path="url(#clip6)"><text fill="#0070C0" font-family="Calibri,Calibri_MSFontService,sans-serif" font-weight="400" font-size="24" transform="matrix(1 0 0 0.999449 13.8839 242)">shield</text></g><g clip-path="url(#clip7)"><text fill="#0070C0" font-family="Calibri,Calibri_MSFontService,sans-serif" font-weight="400" font-size="24" transform="matrix(1 0 0 0.999449 13.8839 284)">level</text></g><g clip-path="url(#clip8)"><text fill="#548235" font-family="Calibri,Calibri_MSFontService,sans-serif" font-weight="400" font-size="24" transform="matrix(1 0 0 0.999449 424.624 310)">burst()</text></g><g clip-path="url(#clip9)"><text font-family="Calibri,Calibri_MSFontService,sans-serif" font-weight="400" font-size="17" transform="matrix(1 0 0 0.999449 13.8839 317)">We would not initialize them, as different instances of </text></g><g clip-path="url(#clip10)"><text font-family="Calibri,Calibri_MSFontService,sans-serif" font-weight="400" font-size="17" transform="matrix(1 0 0 0.999449 13.8839 338)">craft will have different values for these variables.</text></g></g></svg>