<svg width="605" height="359" xmlns="http://www.w3.org/2000/svg" xmlns:xlink="http://www.w3.org/1999/xlink" overflow="hidden"><defs><clipPath id="clip0"><rect x="0" y="0" width="605" height="359"/></clipPath></defs><g clip-path="url(#clip0)"><rect x="0" y="0" width="605" height="358.802" fill="#FFFFFF"/><path d="M69.0089 45.1293 549.274 45.1293 549.274 135.251 69.0089 135.251Z" fill="#A5A5A5" fill-rule="evenodd"/><path d="M69.0089 135.251 309.141 135.251 309.141 225.373 69.0089 225.373Z" fill="#B4C7E7" fill-rule="evenodd"/><path d="M309.141 135.251 549.274 135.251 549.274 225.373 309.141 225.373Z" fill="#B4C7E7" fill-rule="evenodd"/><path d="M69.0089 225.373 309.141 225.373 309.141 315.495 69.0089 315.495Z" fill="#FFFFFF" fill-rule="evenodd"/><path d="M309.141 225.373 549.274 225.373 549.274 315.495 309.141 315.495Z" fill="#FFFFFF" fill-rule="evenodd"/><path d="M309.141 134.585 309.141 316.162" stroke="#000000" stroke-width="1.33407" stroke-linejoin="round" stroke-miterlimit="10" fill="none" fill-rule="evenodd"/><path d="M68.3419 135.251 549.941 135.251" stroke="#000000" stroke-width="1.33407" stroke-linejoin="round" stroke-miterlimit="10" fill="none" fill-rule="evenodd"/><path d="M68.3419 225.373 549.941 225.373" stroke="#000000" stroke-width="1.33407" stroke-linejoin="round" stroke-miterlimit="10" fill="none" fill-rule="evenodd"/><path d="M69.0089 44.4627 69.0089 316.162" stroke="#000000" stroke-width="1.33407" stroke-linejoin="round" stroke-miterlimit="10" fill="none" fill-rule="evenodd"/><path d="M549.274 44.4627 549.274 316.162" stroke="#000000" stroke-width="1.33407" stroke-linejoin="round" stroke-miterlimit="10" fill="none" fill-rule="evenodd"/><path d="M68.3419 45.1293 549.941 45.1293" stroke="#000000" stroke-width="1.33407" stroke-linejoin="round" stroke-miterlimit="10" fill="none" fill-rule="evenodd"/><path d="M68.3419 315.495 549.941 315.495" stroke="#000000" stroke-width="1.33407" stroke-linejoin="round" stroke-miterlimit="10" fill="none" fill-rule="evenodd"/><text fill="#FFFFFF" font-family="Calibri,Calibri_MSFontService,sans-serif" font-weight="700" font-size="24" transform="matrix(1 0 0 0.999449 239.846 83)">Encapsulation<tspan x="-25.9743" y="29.016">Getters and Setters</tspan><tspan fill="#000000" font-weight="400" x="-111.345" y="105.058">set methods</tspan><tspan fill="#000000" font-weight="400" x="127.887" y="105.058">get methods</tspan><tspan fill="#000000" font-weight="400" x="-120.386" y="195.108">C</tspan><tspan fill="#000000" font-weight="400" x="-107.546" y="195.108">hanging data</tspan><tspan fill="#000000" font-weight="400" x="123.718" y="195.108">Fetching data</tspan></text></g></svg>